PathFileType	4	(X/Y/Z)	C:\Users\Graham\Documents\MATLAB\MOtoNMS_v2_2\MyData\ElaboratedData\S2\17-05-16\staticElaborations\Static1\Static1\\Static1.trc
DataRate	CameraRate	NumFrames	NumMarkers	Units	OrigDataRate	DataStartFrame
100	100	7	38	mm	100	2
Frame#	Time	V_Sacral			R_ASIS			L_ASIS			R_Knee_Lat			R_Knee_Med			R_Thigh_Upper			R_Thigh_Front			R_Thigh_Rear			L_Knee_Lat			L_Knee_Med			L_Thigh_Upper			L_Thigh_Front			L_Thigh_Rear			R_Ankle_Lat			R_Ankle_Med			R_Shank_Upper			R_Shank_Front			R_Shank_Rear			L_Ankle_Lat			L_Ankle_Med			L_Shank_Upper			L_Shank_Front			L_Shank_Rear			R_Heel			R_MTP1			R_MTP5			L_Heel			L_MTP1			L_MTP5			Clavicle			R_Acromium			L_Acromium			LAJC			RAJC			LHJC			RHJC			LKJC			RKJC		
		X1	Y1	Z1	X2	Y2	Z2	X3	Y3	Z3	X4	Y4	Z4	X5	Y5	Z5	X6	Y6	Z6	X7	Y7	Z7	X8	Y8	Z8	X9	Y9	Z9	X10	Y10	Z10	X11	Y11	Z11	X12	Y12	Z12	X13	Y13	Z13	X14	Y14	Z14	X15	Y15	Z15	X16	Y16	Z16	X17	Y17	Z17	X18	Y18	Z18	X19	Y19	Z19	X20	Y20	Z20	X21	Y21	Z21	X22	Y22	Z22	X23	Y23	Z23	X24	Y24	Z24	X25	Y25	Z25	X26	Y26	Z26	X27	Y27	Z27	X28	Y28	Z28	X29	Y29	Z29	X30	Y30	Z30	X31	Y31	Z31	X32	Y32	Z32	X33	Y33	Z33	X34	Y34	Z34	X35	Y35	Z35	X36	Y36	Z36	X37	Y37	Z37	X38	Y38	Z38	

60	0.590000	162.386636	1005.783781	28.462081	368.634610	1017.024770	148.856652	358.225259	1026.277836	-86.770554	236.135696	519.152075	217.016891	242.036094	512.862206	108.007592	382.790186	740.301646	168.142170	335.306120	636.467040	138.437122	320.851641	648.432040	199.897632	252.437025	535.231157	-147.264742	244.651816	509.712677	-36.899128	358.708540	781.814085	-139.893058	352.916175	666.393032	-112.855594	300.572158	670.984182	-160.215095	187.946941	106.869017	244.111203	220.059500	107.793348	158.992282	266.222639	374.482267	219.879046	255.857982	258.869665	187.141580	214.303293	262.748831	253.779555	212.938360	90.987568	-182.743916	252.660343	113.309811	-102.051256	276.686398	357.153535	-163.553754	271.636177	245.748203	-129.478372	225.153997	250.731738	-190.758284	123.304466	63.028834	194.019351	354.961070	67.676206	200.278016	333.788690	51.271336	282.533465	147.219918	63.845075	-129.740753	388.589406	64.250406	-158.084099	354.548037	50.210045	-235.541140	333.333276	1391.835568	31.965436	235.163393	1440.897647	225.713562	270.067105	1442.766946	-171.288624	232.799351	102.148689	-142.397586	204.003220	107.331182	201.551742	308.076090	938.893757	-55.102839	315.590124	932.214391	114.985679	248.544421	522.471917	-92.081935	239.085895	516.007141	162.512242	
61	0.600000	162.322495	1005.777120	28.458768	368.579523	1017.031626	148.847276	358.167054	1026.287913	-86.778765	236.108465	519.151043	217.015574	242.091095	512.941303	108.054550	382.752501	740.310758	168.136644	335.268377	636.472866	138.431924	320.816839	648.437269	199.894661	252.432758	535.233168	-147.269735	244.634591	509.715111	-36.908019	358.682809	781.830650	-139.900623	352.898369	666.405336	-112.864721	300.556540	670.991685	-160.223085	187.942976	106.864805	244.112835	220.059582	107.791976	158.989816	266.205560	374.480190	219.875632	255.845599	258.868461	187.139507	214.291656	262.744638	253.777032	212.938628	90.987530	-182.746546	252.659889	113.310210	-102.051835	276.683839	357.154849	-163.555012	271.634160	245.749945	-129.477753	225.155789	250.731997	-190.761473	123.301707	63.026629	194.022162	354.960568	67.679166	200.278352	333.789561	51.270740	282.531879	147.220747	63.844975	-129.741909	388.590703	64.252260	-158.084105	354.547912	50.211337	-235.540829	333.316302	1391.818858	31.985601	235.180901	1440.891225	225.746654	270.041831	1442.772245	-171.254771	232.799259	102.148870	-142.399190	204.001279	107.328390	201.551325	308.022368	938.899829	-55.112058	315.538657	932.218136	114.975675	248.533675	522.474140	-92.088877	239.099780	516.046173	162.535062	
62	0.610000	162.256626	1005.772538	28.452689	368.522256	1017.037687	148.839546	358.108919	1026.297531	-86.786435	236.075513	519.149412	217.012029	242.155370	513.033271	108.109545	382.709265	740.319223	168.130751	335.227508	636.479216	138.425711	320.776826	648.441104	199.890085	252.425154	535.235069	-147.276366	244.616116	509.717194	-36.917915	358.654302	781.845782	-139.909433	352.877185	666.416779	-112.876211	300.536960	670.998910	-160.232145	187.938729	106.860620	244.113954	220.059051	107.790714	158.986398	266.184486	374.478560	219.870628	255.831187	258.867510	187.136581	214.276713	262.740065	253.773142	212.938598	90.986940	-182.749756	252.659130	113.310818	-102.052653	276.678640	357.155787	-163.557832	271.630485	245.751348	-129.478092	225.155718	250.731655	-190.764958	123.299074	63.024064	194.024954	354.959436	67.682172	200.278576	333.789485	51.269711	282.529880	147.221240	63.844589	-129.742889	388.592087	64.253703	-158.084550	354.547777	50.212753	-235.540273	333.299407	1391.802753	32.008099	235.195450	1440.881883	225.781121	270.016131	1442.777267	-171.219221	232.798864	102.148879	-142.401204	203.998890	107.325667	201.550176	307.967180	938.905764	-55.121093	315.484095	932.221504	114.966589	248.520635	522.476132	-92.097141	239.115441	516.091342	162.560787	
63	0.620000	162.189769	1005.770122	28.444086	368.464175	1017.042888	148.833211	358.051234	1026.306689	-86.793721	236.037335	519.147277	217.006286	242.223483	513.132500	108.169106	382.661106	740.326964	168.124672	335.184240	636.486125	138.418567	320.732302	648.443721	199.883835	252.413438	535.236738	-147.284285	244.595770	509.718896	-36.928414	358.622328	781.859334	-139.919396	352.851878	666.427133	-112.890029	300.512519	671.005805	-160.242178	187.934288	106.856602	244.114504	220.057747	107.789401	158.982220	266.159796	374.477688	219.864188	255.814937	258.866860	187.132784	214.258649	262.735315	253.767924	212.938292	90.985673	-182.753128	252.657980	113.311646	-102.053710	276.670194	357.156562	-163.561997	271.624834	245.752535	-129.479333	225.153341	250.730697	-190.768603	123.296720	63.021176	194.027502	354.957344	67.685054	200.278700	333.788304	51.268327	282.527600	147.221317	63.843880	-129.743706	388.593265	64.254689	-158.085169	354.547674	50.214269	-235.539524	333.281762	1391.787648	32.033119	235.205792	1440.869671	225.816788	269.989717	1442.782319	-171.182074	232.798136	102.148659	-142.403419	203.996017	107.323001	201.548362	307.910960	938.911592	-55.129918	315.427586	932.224478	114.958383	248.504604	522.477817	-92.106349	239.130409	516.139889	162.587696	
64	0.630000	162.122697	1005.769921	28.433371	368.406599	1017.047244	148.827969	357.994352	1026.315427	-86.800784	235.994828	519.144827	216.998667	242.289430	513.232543	108.229207	382.608963	740.333952	168.118630	335.139325	636.493544	138.410696	320.684244	648.445408	199.876093	252.396986	535.238053	-147.293062	244.572844	509.720235	-36.939066	358.586323	781.871268	-139.930226	352.821791	666.436213	-112.905802	300.482565	671.012327	-160.252989	187.929727	106.852848	244.114500	220.055587	107.787902	158.977580	266.132165	374.477882	219.856663	255.797193	258.866601	187.128255	214.237952	262.730692	253.761634	212.937730	90.983658	-182.756257	252.656376	113.312688	-102.055000	276.658020	357.157418	-163.567197	271.616964	245.753664	-129.481370	225.148295	250.729138	-190.772305	123.294722	63.018068	194.029572	354.953991	67.687560	200.278712	333.785997	51.266673	282.525210	147.220929	63.842851	-129.744426	388.593934	64.255220	-158.085714	354.547645	50.215867	-235.538699	333.262621	1391.773911	32.060680	235.210917	1440.854779	225.853460	269.962414	1442.787922	-171.143533	232.797053	102.148173	-142.405629	203.992657	107.320375	201.546040	307.854170	938.917383	-55.138512	315.370290	932.227111	114.950983	248.484915	522.479144	-92.116064	239.142129	516.188685	162.613937	
65	0.640000	162.056188	1005.771934	28.421093	368.350711	1017.050820	148.823486	357.938599	1026.323784	-86.807771	235.949248	519.142334	216.989748	242.347775	513.327298	108.285943	382.554042	740.340197	168.112817	335.093488	636.501304	138.402365	320.633818	648.446494	199.867247	252.375405	535.238916	-147.302236	244.546667	509.721270	-36.949407	358.545930	781.881627	-139.941486	352.786470	666.443905	-112.922864	300.446793	671.018435	-160.264302	187.925126	106.849405	244.114021	220.052587	107.786139	158.972847	266.102506	374.479384	219.848537	255.778392	258.866827	187.123255	214.215352	262.726539	253.754690	212.936913	90.980909	-182.758830	252.654277	113.313919	-102.056513	276.641827	357.158603	-163.573070	271.606750	245.754895	-129.484072	225.140345	250.727019	-190.775984	123.293075	63.014879	194.030973	354.949182	67.689383	200.278562	333.782678	51.264838	282.522894	147.220051	63.841555	-129.745153	388.593843	64.255366	-158.085982	354.547713	50.217516	-235.537950	333.241367	1391.761838	32.090593	235.210071	1440.837504	225.890905	269.934153	1442.794708	-171.103926	232.795595	102.147414	-142.407672	203.988856	107.317772	201.543434	307.797277	938.923210	-55.146857	315.313291	932.229493	114.944280	248.461036	522.480093	-92.125822	239.148512	516.234816	162.637845	
66	0.650000	161.990986	1005.776087	28.407898	368.297476	1017.053699	148.819414	357.884257	1026.331767	-86.814799	235.902127	519.140108	216.980268	242.394765	513.412191	108.336222	382.497753	740.345746	168.107351	335.047394	636.509111	138.393841	320.582287	648.447281	199.857815	252.348601	535.239272	-147.311353	244.516745	509.722092	-36.959000	358.501051	781.890515	-139.952668	352.745772	666.450180	-112.940355	300.405313	671.024095	-160.275796	187.920592	106.846283	244.113204	220.048865	107.784102	158.968417	266.071873	374.482306	219.840336	255.758993	258.867588	187.118108	214.191742	262.723153	253.747593	212.935820	90.977534	-182.760673	252.651669	113.315304	-102.058236	276.621562	357.160331	-163.579247	271.594205	245.756367	-129.487289	225.129425	250.724414	-190.779590	123.291708	63.011752	194.031592	354.942884	67.690214	200.278171	333.778567	51.262914	282.520828	147.218695	63.840094	-129.745995	388.592835	64.255257	-158.085831	354.547878	50.219171	-235.537428	333.217532	1391.751603	32.122460	235.202752	1440.818219	225.928857	269.904957	1442.803290	-171.063698	232.793745	102.146419	-142.409455	203.984728	107.315193	201.540810	307.740726	938.929124	-55.154933	315.257531	932.231730	114.938140	248.432673	522.480682	-92.135176	239.148446	516.276150	162.658245	
